<svg width="120" height="40" viewBox="0 0 120 40" fill="none" xmlns="http://www.w3.org/2000/svg">
  <!-- Kanban board icon -->
  <g opacity="0.9">
    <!-- Column 1 -->
    <rect x="2" y="8" width="8" height="24" rx="1.5" fill="url(#grad1)" opacity="0.3"/>
    <rect x="3" y="10" width="6" height="4" rx="0.5" fill="white" opacity="0.8"/>
    <rect x="3" y="16" width="6" height="6" rx="0.5" fill="white" opacity="0.8"/>
    <rect x="3" y="24" width="6" height="5" rx="0.5" fill="white" opacity="0.8"/>
    
    <!-- Column 2 -->
    <rect x="12" y="8" width="8" height="24" rx="1.5" fill="url(#grad1)" opacity="0.5"/>
    <rect x="13" y="10" width="6" height="5" rx="0.5" fill="white" opacity="0.9"/>
    <rect x="13" y="17" width="6" height="4" rx="0.5" fill="white" opacity="0.9"/>
    <rect x="13" y="23" width="6" height="6" rx="0.5" fill="white" opacity="0.9"/>
    
    <!-- Column 3 -->
    <rect x="22" y="8" width="8" height="24" rx="1.5" fill="url(#grad1)" opacity="0.7"/>
    <rect x="23" y="10" width="6" height="6" rx="0.5" fill="white"/>
    <rect x="23" y="18" width="6" height="5" rx="0.5" fill="white"/>
    <rect x="23" y="25" width="6" height="4" rx="0.5" fill="white"/>
  </g>
  
  <!-- "ello" text -->
  <text x="38" y="28" font-family="system-ui, -apple-system, 'Segoe UI', sans-serif" font-size="24" font-weight="700" fill="white" letter-spacing="-0.5">ello</text>
  
  <!-- Gradient definition -->
  <defs>
    <linearGradient id="grad1" x1="0%" y1="0%" x2="0%" y2="100%">
      <stop offset="0%" style="stop-color:#0079BF;stop-opacity:1" />
      <stop offset="100%" style="stop-color:#026AA7;stop-opacity:1" />
    </linearGradient>
  </defs>
</svg>
